# xmcd
#
# Track frame offsets:
#	187
#	22595
#	44837
#	56420
#	70135
#	92845
#	114450
#	127880
#	142795
#	164935
#	179597
#	191342
#	205147
#	225015
#	237612
#	252580
#	267205
#	273827
#	285485
#	303420
#	320202
#
# Disc length: 4397 seconds
#
# Revision: 1
# Processed by: cddbd v1.5PL3 Copyright (c) Steve Scherf et al.
# Submitted via: CDex 1.50Beta5
#
DISCID=2f112b15
DTITLE=Caetano Veloso - Caetanissimo!
DYEAR=1900
DGENRE=
TTITLE0=Os Outros Ramantics
TTITLE1=Jasper
TTITLE2=Branquinha
TTITLE3=Noite De Hotel
TTITLE4=Eu Sou Neguinha?
TTITLE5=Fera Ferido
TTITLE6=O Quereres
TTITLE7=Sarvete
TTITLE8=Vace E Linda
TTITLE9=A Outra Banda Da Terra
TTITLE10=Caqueiro De Afoxe Para O Bloco Do Lie
TTITLE11=Um Canto De Afoxe Para O Bloco De Ile
TTITLE12=Queixa
TTITLE13=Trihos Urbanos
TTITLE14=Sampa
TTITLE15=Qualquer Coisa
TTITLE16=Joia
TTITLE17=Pelos Olhos
TTITLE18=Lua,Lua,Lua,Lua
TTITLE19=Meia Lua Intera
TTITLE20=Etc.
EXTD=
EXTT0=
EXTT1=
EXTT2=
EXTT3=
EXTT4=
EXTT5=
EXTT6=
EXTT7=
EXTT8=
EXTT9=
EXTT10=
EXTT11=
EXTT12=
EXTT13=
EXTT14=
EXTT15=
EXTT16=
EXTT17=
EXTT18=
EXTT19=
EXTT20=
PLAYORDER=
